<svg width="30" height="30" viewBox="0 0 30 30" fill="none" xmlns="http://www.w3.org/2000/svg">
<path d="M16.2913 27.2352C23.7327 27.2352 29.7866 21.1814 29.7866 13.7407C29.7866 6.29864 23.7327 0.244781 16.2913 0.244781C8.84996 0.244781 2.79609 6.29864 2.79609 13.7407C2.79609 21.1814 8.84927 27.2352 16.2913 27.2352ZM16.2913 1.60842C22.9806 1.60842 28.4229 7.05069 28.4229 13.7407C28.4229 20.43 22.9806 25.8716 16.2913 25.8716C9.60132 25.8716 4.15973 20.43 4.15973 13.7407C4.15973 7.05069 9.60132 1.60842 16.2913 1.60842Z" fill="white"/>
<path d="M0.860416 29.7552C1.02746 29.7552 1.19519 29.6939 1.32746 29.5704L7.77474 23.518C8.04883 23.2602 8.06315 22.828 7.80542 22.5539C7.54701 22.2798 7.11542 22.2668 6.84133 22.5232L0.394053 28.5757C0.119962 28.8334 0.105643 29.2657 0.36337 29.5398C0.497007 29.6829 0.67837 29.7552 0.860416 29.7552Z" fill="white"/>
</svg>
