<svg width="200" height="200" viewBox="0 0 200 200" fill="none" xmlns="http://www.w3.org/2000/svg">
<path d="M100 10C50.4 10 10 50.4 10 100C10 149.6 50.4 190 100 190C149.6 190 190 149.6 190 100C190 50.4 149.6 10 100 10ZM135.4 129.6C137 131.2 137 133.6 135.4 135.2C134.6 136 133.6 136.4 132.6 136.4C131.6 136.4 130.6 136 129.8 135.2L100 105.6L70.4 135.4C69.6 136.2 68.6 136.6 67.6 136.6C66.6 136.6 65.6 136.2 64.8 135.4C63.2 133.8 63.2 131.4 64.8 129.8L94.4 100L64.6 70.4C63 68.8 63 66.4 64.6 64.8C66.2 63.2 68.6 63.2 70.2 64.8L100 94.4L129.6 64.8C131.2 63.2 133.6 63.2 135.2 64.8C136.8 66.4 136.8 68.8 135.2 70.4L105.6 100L135.4 129.6Z" fill="#2D2E2E"/>
</svg>
