<svg width="1000" height="1000" viewBox="0 0 1000 1000" fill="none" xmlns="http://www.w3.org/2000/svg">
<mask id="mask0" mask-type="alpha" maskUnits="userSpaceOnUse" x="0" y="0" width="1000" height="1000">
<circle cx="500" cy="500" r="500" fill="#DC0040"/>
</mask>
<g mask="url(#mask0)">
<circle cx="500" cy="500" r="500" fill="#DC0040"/>
<path d="M167.296 463V348.644H128.424V316.1H245.04V348.644H206.168V463H167.296ZM266.838 463V316.1H305.71V370.792H349.554V316.1H388.426V463H349.554V404.692H305.71V463H266.838ZM420.889 463V316.1H515.809V348.644H459.761V371.696H507.673V404.24H459.761V430.456H518.069V463H420.889Z" fill="white"/>
<path d="M177.24 602.584L174.754 612.754H201.874L199.388 602.584C197.58 595.503 195.772 587.819 193.964 579.532C192.156 571.245 190.348 563.411 188.54 556.028H187.636C185.979 563.561 184.246 571.471 182.438 579.758C180.781 587.894 179.048 595.503 177.24 602.584ZM120.74 674L165.488 527.1H212.496L257.244 674H216.112L208.88 642.812H167.748L160.516 674H120.74ZM271.252 674V527.1H325.04C333.026 527.1 340.634 527.929 347.866 529.586C355.098 531.093 361.426 533.805 366.85 537.722C372.274 541.489 376.568 546.536 379.732 552.864C383.047 559.041 384.704 566.725 384.704 575.916C384.704 584.956 383.047 592.715 379.732 599.194C376.568 605.673 372.274 611.021 366.85 615.24C361.426 619.308 355.174 622.397 348.092 624.506C341.011 626.465 333.628 627.444 325.944 627.444H310.124V674H271.252ZM310.124 596.708H324.136C331.82 596.708 337.47 594.9 341.086 591.284C344.853 587.668 346.736 582.545 346.736 575.916C346.736 569.287 344.702 564.616 340.634 561.904C336.566 559.192 330.766 557.836 323.232 557.836H310.124V596.708ZM408.751 674V527.1H462.539C470.524 527.1 478.133 527.929 485.365 529.586C492.597 531.093 498.925 533.805 504.349 537.722C509.773 541.489 514.067 546.536 517.231 552.864C520.545 559.041 522.203 566.725 522.203 575.916C522.203 584.956 520.545 592.715 517.231 599.194C514.067 605.673 509.773 611.021 504.349 615.24C498.925 619.308 492.672 622.397 485.591 624.506C478.509 626.465 471.127 627.444 463.443 627.444H447.623V674H408.751ZM447.623 596.708H461.635C469.319 596.708 474.969 594.9 478.585 591.284C482.351 587.668 484.235 582.545 484.235 575.916C484.235 569.287 482.201 564.616 478.133 561.904C474.065 559.192 468.264 557.836 460.731 557.836H447.623V596.708Z" fill="white"/>
<path d="M140.272 876V729.1H181.856L204.004 789.216C205.36 793.284 206.641 797.503 207.846 801.872C209.051 806.241 210.332 810.611 211.688 814.98H212.592C213.948 810.611 215.229 806.241 216.434 801.872C217.639 797.503 218.92 793.284 220.276 789.216L241.52 729.1H283.104V876H247.848V832.608C247.848 828.841 247.999 824.698 248.3 820.178C248.752 815.658 249.204 811.063 249.656 806.392C250.108 801.571 250.635 796.9 251.238 792.38C251.841 787.86 252.368 783.792 252.82 780.176H251.916L239.712 815.432L221.632 864.022H200.84L182.76 815.432L171.008 780.176H170.104C170.556 783.792 171.083 787.86 171.686 792.38C172.289 796.9 172.816 801.571 173.268 806.392C173.72 811.063 174.097 815.658 174.398 820.178C174.85 824.698 175.076 828.841 175.076 832.608V876H140.272ZM377.655 878.712C367.41 878.712 358.068 876.979 349.631 873.514C341.344 870.049 334.188 865.077 328.161 858.598C322.285 851.969 317.69 843.908 314.375 834.416C311.06 824.773 309.403 813.925 309.403 801.872C309.403 789.819 311.06 779.121 314.375 769.78C317.69 760.288 322.285 752.378 328.161 746.05C334.188 739.571 341.344 734.675 349.631 731.36C358.068 728.045 367.41 726.388 377.655 726.388C387.75 726.388 397.016 728.045 405.453 731.36C413.89 734.675 421.047 739.571 426.923 746.05C432.95 752.529 437.62 760.439 440.935 769.78C444.25 779.121 445.907 789.819 445.907 801.872C445.907 813.925 444.25 824.773 440.935 834.416C437.62 843.908 432.95 851.969 426.923 858.598C421.047 865.077 413.89 870.049 405.453 873.514C397.016 876.979 387.75 878.712 377.655 878.712ZM377.655 845.264C386.544 845.264 393.475 841.422 398.447 833.738C403.57 825.903 406.131 815.281 406.131 801.872C406.131 788.463 403.57 778.142 398.447 770.91C393.475 763.527 386.544 759.836 377.655 759.836C368.766 759.836 361.76 763.527 356.637 770.91C351.665 778.142 349.179 788.463 349.179 801.872C349.179 815.281 351.665 825.903 356.637 833.738C361.76 841.422 368.766 845.264 377.655 845.264ZM494.862 876L451.47 729.1H492.602L507.97 793.284C510.08 801.119 511.888 808.878 513.394 816.562C514.901 824.095 516.709 831.855 518.818 839.84H519.722C521.832 831.855 523.64 824.095 525.146 816.562C526.804 808.878 528.612 801.119 530.57 793.284L545.486 729.1H585.262L541.87 876H494.862ZM599.335 876V729.1H638.207V876H599.335ZM670.842 876V729.1H765.762V761.644H709.714V784.696H757.626V817.24H709.714V843.456H768.022V876H670.842ZM816.31 878.712C809.681 878.712 804.257 876.452 800.038 871.932C795.82 867.412 793.71 861.837 793.71 855.208C793.71 848.579 795.82 843.004 800.038 838.484C804.257 833.964 809.681 831.704 816.31 831.704C822.94 831.704 828.364 833.964 832.582 838.484C836.801 843.004 838.91 848.579 838.91 855.208C838.91 861.837 836.801 867.412 832.582 871.932C828.364 876.452 822.94 878.712 816.31 878.712Z" fill="white"/>
</g>
</svg>
